<svg id="svg" version="1.1" width="2054" height="2000" xmlns="http://www.w3.org/2000/svg" xmlns:xlink="http://www.w3.org/1999/xlink" style="display: block;"><g id="svgg"><path id="path0" d="M127.410 5.398 C 127.704 5.442,128.186 5.442,128.481 5.398 C 128.776 5.353,128.535 5.316,127.945 5.316 C 127.356 5.316,127.115 5.353,127.410 5.398 M271.519 5.398 C 271.814 5.442,272.296 5.442,272.590 5.398 C 272.885 5.353,272.644 5.316,272.055 5.316 C 271.465 5.316,271.224 5.353,271.519 5.398 M106.378 15.914 C 106.672 15.958,107.154 15.958,107.449 15.914 C 107.743 15.869,107.502 15.832,106.913 15.832 C 106.324 15.832,106.083 15.869,106.378 15.914 M292.551 15.914 C 292.846 15.958,293.328 15.958,293.622 15.914 C 293.917 15.869,293.676 15.832,293.087 15.832 C 292.498 15.832,292.257 15.869,292.551 15.914 M100.828 16.374 C 100.640 16.483,100.488 16.678,100.490 16.806 C 100.492 16.968,100.537 16.975,100.636 16.829 C 100.715 16.712,100.954 16.518,101.168 16.396 C 101.383 16.275,101.470 16.175,101.363 16.175 C 101.256 16.175,101.015 16.265,100.828 16.374 M298.832 16.396 C 299.046 16.518,299.285 16.712,299.364 16.829 C 299.463 16.974,299.508 16.966,299.510 16.803 C 299.512 16.673,299.344 16.476,299.136 16.365 C 298.624 16.091,298.343 16.119,298.832 16.396 M85.346 26.430 C 85.640 26.474,86.122 26.474,86.417 26.430 C 86.711 26.385,86.470 26.349,85.881 26.349 C 85.292 26.349,85.051 26.385,85.346 26.430 M313.583 26.430 C 313.878 26.474,314.360 26.474,314.654 26.430 C 314.949 26.385,314.708 26.349,314.119 26.349 C 313.530 26.349,313.289 26.385,313.583 26.430 M79.649 27.069 C 79.435 27.283,79.266 27.568,79.273 27.702 C 79.280 27.836,79.377 27.758,79.488 27.528 C 79.600 27.298,79.879 27.019,80.108 26.908 C 80.338 26.797,80.416 26.700,80.282 26.693 C 80.148 26.686,79.864 26.855,79.649 27.069 M319.892 26.908 C 320.121 27.019,320.400 27.298,320.512 27.528 C 320.623 27.758,320.720 27.836,320.727 27.702 C 320.744 27.387,320.033 26.676,319.718 26.693 C 319.584 26.700,319.662 26.797,319.892 26.908 M69.133 37.585 C 68.919 37.799,68.750 38.084,68.757 38.218 C 68.764 38.352,68.861 38.274,68.972 38.044 C 69.084 37.814,69.362 37.535,69.592 37.424 C 69.822 37.313,69.900 37.216,69.766 37.209 C 69.632 37.202,69.348 37.371,69.133 37.585 M330.408 37.424 C 330.638 37.535,330.916 37.814,331.028 38.044 C 331.139 38.274,331.236 38.352,331.243 38.218 C 331.260 37.903,330.549 37.192,330.234 37.209 C 330.100 37.216,330.178 37.313,330.408 37.424 M58.617 48.101 C 58.403 48.315,58.234 48.600,58.241 48.734 C 58.248 48.868,58.345 48.790,58.456 48.560 C 58.568 48.330,58.846 48.051,59.076 47.940 C 59.306 47.829,59.384 47.732,59.250 47.725 C 59.116 47.718,58.832 47.887,58.617 48.101 M340.924 47.940 C 341.154 48.051,341.432 48.330,341.544 48.560 C 341.655 48.790,341.752 48.868,341.759 48.734 C 341.776 48.419,341.065 47.708,340.750 47.725 C 340.616 47.732,340.694 47.829,340.924 47.940 M48.101 58.617 C 47.887 58.832,47.718 59.116,47.725 59.250 C 47.732 59.384,47.829 59.306,47.940 59.076 C 48.051 58.846,48.330 58.568,48.560 58.456 C 48.790 58.345,48.868 58.248,48.734 58.241 C 48.600 58.234,48.315 58.403,48.101 58.617 M351.440 58.456 C 351.670 58.568,351.949 58.846,352.060 59.076 C 352.171 59.306,352.268 59.384,352.275 59.250 C 352.292 58.935,351.581 58.224,351.266 58.241 C 351.132 58.248,351.210 58.345,351.440 58.456 M37.585 69.133 C 37.371 69.348,37.202 69.632,37.209 69.766 C 37.216 69.900,37.313 69.822,37.424 69.592 C 37.535 69.362,37.814 69.084,38.044 68.972 C 38.274 68.861,38.352 68.764,38.218 68.757 C 38.084 68.750,37.799 68.919,37.585 69.133 M361.956 68.972 C 362.186 69.084,362.465 69.362,362.576 69.592 C 362.687 69.822,362.784 69.900,362.791 69.766 C 362.808 69.451,362.097 68.740,361.782 68.757 C 361.648 68.764,361.726 68.861,361.956 68.972 M27.069 79.649 C 26.855 79.864,26.686 80.148,26.693 80.282 C 26.700 80.416,26.797 80.338,26.908 80.108 C 27.019 79.879,27.298 79.600,27.528 79.488 C 27.758 79.377,27.836 79.280,27.702 79.273 C 27.568 79.266,27.283 79.435,27.069 79.649 M372.472 79.488 C 372.702 79.600,372.981 79.879,373.092 80.108 C 373.203 80.338,373.300 80.416,373.307 80.282 C 373.324 79.967,372.613 79.256,372.298 79.273 C 372.164 79.280,372.242 79.377,372.472 79.488 M26.349 85.881 C 26.349 86.470,26.385 86.711,26.430 86.417 C 26.474 86.122,26.474 85.640,26.430 85.346 C 26.385 85.051,26.349 85.292,26.349 85.881 M373.573 85.881 C 373.573 86.470,373.610 86.711,373.655 86.417 C 373.699 86.122,373.699 85.640,373.655 85.346 C 373.610 85.051,373.573 85.292,373.573 85.881 M16.349 100.893 C 16.230 101.116,16.183 101.350,16.245 101.412 C 16.307 101.475,16.358 101.429,16.358 101.312 C 16.358 101.195,16.496 100.961,16.664 100.793 C 16.833 100.625,16.880 100.487,16.769 100.487 C 16.658 100.487,16.469 100.670,16.349 100.893 M383.336 100.793 C 383.504 100.961,383.642 101.195,383.642 101.312 C 383.642 101.429,383.693 101.475,383.755 101.412 C 383.912 101.255,383.478 100.487,383.231 100.487 C 383.120 100.487,383.167 100.625,383.336 100.793 M15.832 106.913 C 15.832 107.502,15.869 107.743,15.914 107.449 C 15.958 107.154,15.958 106.672,15.914 106.378 C 15.869 106.083,15.832 106.324,15.832 106.913 M384.090 106.913 C 384.090 107.502,384.126 107.743,384.171 107.449 C 384.215 107.154,384.215 106.672,384.171 106.378 C 384.126 106.083,384.090 106.324,384.090 106.913 M5.316 127.945 C 5.316 128.535,5.353 128.776,5.398 128.481 C 5.442 128.186,5.442 127.704,5.398 127.410 C 5.353 127.115,5.316 127.356,5.316 127.945 M394.606 127.945 C 394.606 128.535,394.642 128.776,394.687 128.481 C 394.731 128.186,394.731 127.704,394.687 127.410 C 394.642 127.115,394.606 127.356,394.606 127.945 M5.316 261.538 C 5.316 262.128,5.353 262.369,5.398 262.074 C 5.442 261.779,5.442 261.297,5.398 261.003 C 5.353 260.708,5.316 260.949,5.316 261.538 M394.606 261.538 C 394.606 262.128,394.642 262.369,394.687 262.074 C 394.731 261.779,394.731 261.297,394.687 261.003 C 394.642 260.708,394.606 260.949,394.606 261.538 M15.832 282.571 C 15.832 283.160,15.869 283.401,15.914 283.106 C 15.958 282.812,15.958 282.330,15.914 282.035 C 15.869 281.741,15.832 281.981,15.832 282.571 M384.090 282.571 C 384.090 283.160,384.126 283.401,384.171 283.106 C 384.215 282.812,384.215 282.330,384.171 282.035 C 384.126 281.741,384.090 281.981,384.090 282.571 M16.170 288.085 C 16.158 288.402,16.573 288.997,16.803 288.994 C 16.966 288.992,16.974 288.947,16.829 288.848 C 16.712 288.769,16.518 288.530,16.396 288.315 C 16.275 288.101,16.173 287.997,16.170 288.085 M383.642 288.172 C 383.642 288.289,383.504 288.523,383.336 288.691 C 383.167 288.859,383.120 288.997,383.231 288.997 C 383.478 288.997,383.912 288.229,383.755 288.072 C 383.693 288.009,383.642 288.054,383.642 288.172 M26.349 303.603 C 26.349 304.192,26.385 304.433,26.430 304.138 C 26.474 303.844,26.474 303.362,26.430 303.067 C 26.385 302.773,26.349 303.014,26.349 303.603 M373.573 303.603 C 373.573 304.192,373.610 304.433,373.655 304.138 C 373.699 303.844,373.699 303.362,373.655 303.067 C 373.610 302.773,373.573 303.014,373.573 303.603 M26.693 309.202 C 26.676 309.517,27.387 310.228,27.702 310.211 C 27.836 310.204,27.758 310.107,27.528 309.995 C 27.298 309.884,27.019 309.605,26.908 309.376 C 26.797 309.146,26.700 309.068,26.693 309.202 M373.036 309.420 C 372.967 309.637,372.734 309.871,372.517 309.940 C 372.300 310.008,372.160 310.103,372.207 310.149 C 372.253 310.195,372.437 310.177,372.616 310.108 C 372.964 309.975,373.415 309.280,373.257 309.122 C 373.204 309.069,373.105 309.204,373.036 309.420 M37.209 319.718 C 37.192 320.033,37.903 320.744,38.218 320.727 C 38.352 320.720,38.274 320.623,38.044 320.512 C 37.814 320.400,37.535 320.121,37.424 319.892 C 37.313 319.662,37.216 319.584,37.209 319.718 M362.520 319.936 C 362.451 320.153,362.217 320.387,362.001 320.456 C 361.784 320.525,361.644 320.619,361.691 320.665 C 361.737 320.711,361.921 320.693,362.100 320.624 C 362.448 320.491,362.899 319.796,362.740 319.638 C 362.688 319.585,362.589 319.720,362.520 319.936 M47.725 330.234 C 47.708 330.549,48.419 331.260,48.734 331.243 C 48.868 331.236,48.790 331.139,48.560 331.028 C 48.330 330.916,48.051 330.638,47.940 330.408 C 47.829 330.178,47.732 330.100,47.725 330.234 M352.004 330.452 C 351.935 330.669,351.701 330.903,351.485 330.972 C 351.268 331.041,351.128 331.135,351.175 331.181 C 351.221 331.227,351.405 331.209,351.584 331.140 C 351.932 331.007,352.383 330.312,352.224 330.154 C 352.172 330.101,352.073 330.236,352.004 330.452 M58.241 340.750 C 58.224 341.065,58.935 341.776,59.250 341.759 C 59.384 341.752,59.306 341.655,59.076 341.544 C 58.846 341.432,58.568 341.154,58.456 340.924 C 58.345 340.694,58.248 340.616,58.241 340.750 M341.488 340.969 C 341.419 341.185,341.185 341.419,340.969 341.488 C 340.752 341.557,340.612 341.651,340.659 341.697 C 340.705 341.743,340.889 341.725,341.068 341.656 C 341.416 341.523,341.867 340.828,341.708 340.670 C 341.656 340.617,341.557 340.752,341.488 340.969 M68.757 351.266 C 68.740 351.581,69.451 352.292,69.766 352.275 C 69.900 352.268,69.822 352.171,69.592 352.060 C 69.362 351.949,69.084 351.670,68.972 351.440 C 68.861 351.210,68.764 351.132,68.757 351.266 M330.972 351.485 C 330.903 351.701,330.669 351.935,330.452 352.004 C 330.236 352.073,330.096 352.167,330.142 352.213 C 330.189 352.260,330.373 352.241,330.552 352.173 C 330.900 352.039,331.351 351.344,331.192 351.186 C 331.140 351.133,331.041 351.268,330.972 351.485 M79.273 361.782 C 79.256 362.097,79.967 362.808,80.282 362.791 C 80.416 362.784,80.338 362.687,80.108 362.576 C 79.879 362.465,79.600 362.186,79.488 361.956 C 79.377 361.726,79.280 361.648,79.273 361.782 M320.456 362.001 C 320.387 362.217,320.153 362.451,319.936 362.520 C 319.720 362.589,319.580 362.683,319.626 362.729 C 319.673 362.776,319.857 362.757,320.036 362.689 C 320.384 362.555,320.835 361.860,320.676 361.702 C 320.624 361.649,320.525 361.784,320.456 362.001 M85.346 363.139 C 85.640 363.183,86.122 363.183,86.417 363.139 C 86.711 363.094,86.470 363.057,85.881 363.057 C 85.292 363.057,85.051 363.094,85.346 363.139 M313.583 363.139 C 313.878 363.183,314.360 363.183,314.654 363.139 C 314.949 363.094,314.708 363.057,314.119 363.057 C 313.530 363.057,313.289 363.094,313.583 363.139 M100.487 372.715 C 100.487 372.962,101.255 373.396,101.412 373.239 C 101.475 373.177,101.429 373.126,101.312 373.126 C 101.195 373.126,100.961 372.988,100.793 372.820 C 100.625 372.651,100.487 372.604,100.487 372.715 M299.318 372.674 C 299.318 372.783,299.121 372.966,298.880 373.083 C 298.639 373.199,298.535 373.300,298.648 373.307 C 298.976 373.328,299.625 372.783,299.464 372.622 C 299.384 372.542,299.318 372.565,299.318 372.674 M106.378 373.655 C 106.672 373.699,107.154 373.699,107.449 373.655 C 107.743 373.610,107.502 373.573,106.913 373.573 C 106.324 373.573,106.083 373.610,106.378 373.655 M292.551 373.655 C 292.846 373.699,293.328 373.699,293.622 373.655 C 293.917 373.610,293.676 373.573,293.087 373.573 C 292.498 373.573,292.257 373.610,292.551 373.655 M127.410 384.171 C 127.704 384.215,128.186 384.215,128.481 384.171 C 128.776 384.126,128.535 384.090,127.945 384.090 C 127.356 384.090,127.115 384.126,127.410 384.171 M271.519 384.171 C 271.814 384.215,272.296 384.215,272.590 384.171 C 272.885 384.126,272.644 384.090,272.055 384.090 C 271.465 384.090,271.224 384.126,271.519 384.171 " stroke="none" fill="#00ffff" fill-rule="evenodd"></path><path id="path1" d="M267.153 27.853 C 262.191 28.690,259.451 31.571,259.389 36.015 C 259.376 36.988,258.199 38.449,257.265 38.654 C 255.376 39.069,253.751 41.187,253.453 43.622 C 253.380 44.211,253.287 44.749,253.245 44.818 C 253.203 44.886,253.115 45.500,253.050 46.181 C 252.819 48.609,250.924 50.950,247.712 52.775 C 245.683 53.927,243.951 55.442,243.041 56.860 L 242.454 57.775 242.454 79.012 L 242.454 100.249 243.298 101.396 C 244.440 102.947,245.837 104.130,247.629 105.064 C 249.884 106.238,251.385 107.724,252.709 110.093 C 253.934 112.282,255.803 114.353,257.198 115.064 L 258.018 115.482 284.293 115.482 L 310.569 115.482 311.757 114.689 C 313.314 113.649,314.375 112.410,315.676 110.110 C 316.964 107.834,318.610 106.217,320.885 104.993 C 324.108 103.258,325.672 101.331,326.398 98.200 C 326.640 97.155,326.912 96.217,327.002 96.115 C 327.093 96.013,327.167 95.787,327.167 95.613 C 327.167 94.995,328.554 91.778,329.458 90.301 C 329.975 89.457,330.270 83.303,330.273 73.320 L 330.275 68.452 329.283 67.868 C 326.795 66.401,325.253 63.817,324.146 59.259 C 323.528 56.718,322.462 55.563,319.960 54.724 C 316.591 53.596,314.818 51.784,313.613 48.240 C 313.148 46.873,312.651 46.143,311.557 45.222 L 310.929 44.693 305.173 44.596 L 299.416 44.499 297.941 43.862 C 295.329 42.734,293.509 40.664,292.597 37.780 C 292.213 36.567,291.396 35.391,290.394 34.610 L 289.713 34.080 284.341 34.078 C 275.564 34.076,271.611 32.683,269.007 28.676 C 268.641 28.113,268.279 27.664,268.202 27.676 C 268.125 27.689,267.653 27.768,267.153 27.853 M36.621 112.438 C 35.813 114.565,35.110 116.807,34.468 119.310 C 32.968 125.155,30.708 127.857,26.648 128.661 C 26.210 128.748,25.602 129.186,24.781 130.005 L 23.564 131.220 23.564 141.816 C 23.564 153.531,23.576 153.397,22.295 155.696 C 21.106 157.830,19.178 159.285,16.358 160.177 C 15.538 160.436,15.025 160.782,14.167 161.653 L 13.048 162.790 13.048 194.742 L 13.048 226.694 14.167 227.831 C 15.025 228.702,15.538 229.048,16.358 229.307 C 19.178 230.199,21.106 231.654,22.295 233.788 C 23.576 236.087,23.564 235.953,23.564 247.668 L 23.564 258.264 24.781 259.479 C 25.602 260.298,26.210 260.736,26.648 260.822 C 29.437 261.375,32.154 263.633,33.341 266.383 L 33.982 267.868 34.080 273.530 C 34.198 280.383,34.479 281.033,37.780 282.083 C 40.716 283.017,42.717 284.772,43.858 287.415 L 44.499 288.900 44.596 294.657 L 44.693 300.413 45.222 301.041 C 46.143 302.135,46.873 302.632,48.240 303.097 C 51.784 304.302,53.596 306.075,54.724 309.444 C 55.475 311.683,56.647 312.896,58.756 313.613 C 62.312 314.822,64.359 316.855,65.313 320.122 C 65.882 322.071,67.403 323.611,69.294 324.154 C 72.614 325.107,74.652 327.144,75.871 330.728 C 76.588 332.837,77.801 334.009,80.040 334.760 C 83.409 335.888,85.182 337.700,86.387 341.244 C 86.852 342.611,87.349 343.341,88.443 344.262 L 89.071 344.791 94.827 344.888 L 100.584 344.985 102.059 345.622 C 104.671 346.750,106.491 348.820,107.403 351.704 C 107.769 352.860,108.572 354.043,109.517 354.820 L 110.110 355.307 115.863 355.404 L 121.616 355.501 123.101 356.142 C 125.851 357.329,128.109 360.047,128.661 362.836 C 128.748 363.274,129.186 363.882,130.005 364.703 L 131.220 365.920 141.816 365.920 C 153.533 365.920,153.389 365.907,155.708 367.191 C 157.807 368.354,159.153 370.196,160.359 373.556 C 160.585 374.186,161.026 374.782,161.762 375.455 L 162.836 376.436 200.000 376.436 L 237.164 376.436 238.238 375.455 C 238.974 374.782,239.415 374.186,239.641 373.556 C 240.811 370.297,242.166 368.395,244.112 367.282 C 246.250 366.058,246.312 366.049,252.970 365.916 L 259.104 365.793 261.441 365.101 C 266.863 363.497,267.730 362.986,268.982 360.662 C 270.507 357.830,273.082 355.196,275.964 353.522 C 277.040 352.897,277.492 352.528,277.418 352.336 C 277.359 352.183,277.256 351.824,277.188 351.540 C 277.018 350.821,276.098 349.383,275.803 349.374 C 275.669 349.370,275.560 349.282,275.560 349.177 C 275.560 348.882,274.063 348.277,272.347 347.879 C 270.322 347.409,257.642 347.330,256.475 347.780 C 252.910 349.156,251.043 350.333,248.845 352.591 L 247.432 354.041 242.201 354.041 L 236.970 354.041 235.574 354.787 C 234.806 355.198,233.739 355.689,233.204 355.879 C 232.668 356.069,232.055 356.298,231.840 356.389 C 231.174 356.670,229.745 357.097,228.627 357.349 C 228.038 357.481,227.355 357.668,227.109 357.763 C 226.854 357.861,210.704 357.936,189.594 357.936 L 152.527 357.936 151.349 357.149 C 149.829 356.134,148.459 354.625,147.629 353.052 C 146.445 350.808,145.133 349.279,143.446 348.173 L 142.296 347.420 136.922 347.418 C 131.081 347.416,130.179 347.291,126.193 345.932 C 122.484 344.668,120.937 343.654,118.849 341.119 C 117.260 339.190,116.483 338.338,115.117 337.030 C 113.243 335.235,112.841 334.870,111.871 334.080 C 109.786 332.380,109.056 331.604,109.052 331.083 C 109.020 326.293,106.110 323.223,100.995 322.584 C 99.524 322.401,98.643 321.491,98.455 319.961 C 97.651 313.434,95.116 311.977,84.566 311.977 L 78.950 311.977 78.228 311.238 C 77.832 310.832,77.507 310.346,77.507 310.159 C 77.507 305.321,73.709 301.475,68.917 301.462 C 67.316 301.458,65.079 297.210,63.588 291.348 C 62.736 287.996,61.182 286.033,57.991 284.275 C 55.978 283.166,54.336 281.716,53.325 280.155 L 52.580 279.005 52.580 273.604 L 52.580 268.204 51.791 267.022 C 50.745 265.455,49.432 264.305,47.384 263.161 C 45.346 262.024,43.808 260.666,42.809 259.123 L 42.064 257.973 42.064 247.330 L 42.064 236.688 41.461 235.725 C 40.345 233.943,38.803 232.600,36.432 231.342 C 34.836 230.496,33.331 229.119,32.333 227.592 L 31.548 226.391 31.548 199.865 C 31.548 184.891,31.623 173.144,31.721 172.891 C 31.816 172.645,32.002 171.962,32.134 171.373 C 32.567 169.439,33.513 166.829,34.486 164.883 L 35.443 162.970 35.443 157.769 L 35.443 152.568 36.893 151.155 C 38.528 149.563,39.769 147.877,40.576 146.154 C 41.595 143.977,41.647 143.814,42.749 139.435 C 43.281 137.317,44.011 135.344,45.009 133.324 L 45.959 131.400 45.959 125.803 C 45.959 115.980,44.814 113.620,39.436 112.366 C 37.233 111.853,36.840 111.863,36.621 112.438 M214.685 127.329 C 212.509 128.743,210.778 131.029,210.989 132.210 C 212.076 138.287,212.316 140.742,212.407 146.738 L 212.499 152.775 213.114 153.571 C 213.452 154.009,214.151 154.732,214.666 155.178 L 215.603 155.988 226.351 155.988 L 237.098 155.988 238.559 155.048 C 241.803 152.960,241.580 153.983,241.799 140.186 L 241.931 131.882 241.377 130.936 C 240.645 129.685,239.137 128.109,237.865 127.264 L 236.838 126.582 226.336 126.582 L 215.834 126.582 214.685 127.329 " stroke="none" fill="#e0fbff" fill-rule="evenodd"></path><path id="path2" d="M152.678 2.613 L 152.678 5.227 139.679 5.308 C 124.872 5.401,122.657 5.463,122.255 5.797 C 122.098 5.927,121.905 5.969,121.826 5.889 C 121.746 5.810,121.703 5.833,121.729 5.940 C 121.755 6.047,121.666 6.397,121.531 6.719 C 121.323 7.214,121.106 11.642,121.126 15.021 L 121.130 15.729 113.389 15.828 C 100.972 15.989,100.932 15.993,100.473 17.213 C 100.259 17.781,100.096 21.023,100.097 24.684 L 100.097 26.290 93.622 26.307 C 90.061 26.316,86.643 26.386,86.027 26.463 C 85.411 26.540,84.907 26.527,84.907 26.435 C 84.907 26.343,84.842 26.307,84.761 26.356 C 84.681 26.404,83.783 26.472,82.765 26.506 C 79.265 26.622,79.225 26.687,79.114 32.522 C 79.069 34.932,79.014 36.921,78.993 36.943 C 78.972 36.964,77.030 37.000,74.677 37.021 C 68.402 37.078,68.716 36.772,68.601 42.941 C 68.557 45.297,68.462 47.286,68.389 47.362 C 68.316 47.437,66.372 47.516,64.070 47.537 C 57.892 47.595,58.188 47.303,58.080 53.457 C 58.039 55.813,57.946 57.801,57.873 57.873 C 57.801 57.946,55.813 58.039,53.457 58.080 C 47.303 58.188,47.595 57.892,47.537 64.070 C 47.516 66.372,47.437 68.316,47.362 68.389 C 47.286 68.462,45.297 68.557,42.941 68.601 C 36.772 68.716,37.078 68.402,37.021 74.677 C 37.000 77.030,36.964 78.972,36.943 78.993 C 36.921 79.014,34.932 79.069,32.522 79.114 C 26.687 79.225,26.622 79.265,26.506 82.765 C 26.472 83.783,26.404 84.681,26.356 84.761 C 26.307 84.842,26.343 84.907,26.435 84.907 C 26.527 84.907,26.540 85.411,26.463 86.027 C 26.386 86.643,26.316 90.061,26.307 93.622 L 26.290 100.097 24.684 100.097 C 21.023 100.096,17.781 100.259,17.213 100.473 C 15.993 100.932,15.989 100.972,15.828 113.389 L 15.729 121.130 15.021 121.126 C 11.642 121.106,7.214 121.323,6.719 121.531 C 6.397 121.666,6.047 121.755,5.940 121.729 C 5.833 121.703,5.810 121.746,5.889 121.826 C 5.969 121.905,5.927 122.098,5.797 122.255 C 5.463 122.657,5.401 124.872,5.308 139.679 L 5.227 152.678 2.613 152.678 L 0.000 152.678 0.000 194.742 L 0.000 236.806 2.613 236.806 L 5.227 236.806 5.308 249.805 C 5.401 264.612,5.463 266.827,5.797 267.229 C 5.927 267.386,5.969 267.579,5.889 267.658 C 5.810 267.738,5.833 267.781,5.940 267.755 C 6.047 267.729,6.397 267.818,6.719 267.953 C 7.214 268.161,11.642 268.377,15.021 268.358 L 15.729 268.354 15.828 276.095 C 15.989 288.512,15.993 288.552,17.213 289.011 C 17.781 289.225,21.023 289.388,24.684 289.387 L 26.290 289.387 26.307 295.862 C 26.316 299.423,26.386 302.841,26.463 303.457 C 26.540 304.073,26.527 304.576,26.435 304.576 C 26.343 304.576,26.307 304.642,26.356 304.722 C 26.404 304.803,26.472 305.701,26.506 306.719 C 26.622 310.219,26.687 310.259,32.522 310.369 C 34.932 310.415,36.921 310.470,36.943 310.491 C 36.964 310.512,37.000 312.454,37.021 314.807 C 37.078 321.082,36.772 320.768,42.941 320.883 C 45.297 320.927,47.286 321.022,47.362 321.095 C 47.437 321.168,47.516 323.111,47.537 325.414 C 47.595 331.592,47.303 331.296,53.457 331.404 C 55.813 331.445,57.801 331.538,57.873 331.611 C 57.946 331.683,58.039 333.671,58.080 336.027 C 58.188 342.181,57.892 341.889,64.070 341.947 C 66.372 341.968,68.316 342.047,68.389 342.122 C 68.462 342.198,68.557 344.187,68.601 346.543 C 68.716 352.712,68.402 352.405,74.677 352.463 C 77.030 352.484,78.972 352.520,78.993 352.541 C 79.014 352.563,79.069 354.552,79.114 356.962 C 79.225 362.797,79.265 362.862,82.765 362.978 C 83.783 363.012,84.681 363.079,84.761 363.128 C 84.842 363.177,84.907 363.141,84.907 363.049 C 84.907 362.957,85.411 362.944,86.027 363.021 C 86.643 363.098,90.061 363.168,93.622 363.177 L 100.097 363.194 100.097 364.800 C 100.096 368.461,100.259 371.703,100.473 372.271 C 100.932 373.491,100.972 373.495,113.389 373.655 L 121.130 373.755 121.126 374.463 C 121.106 377.842,121.323 382.270,121.531 382.765 C 121.666 383.087,121.755 383.437,121.729 383.544 C 121.703 383.651,121.746 383.674,121.826 383.595 C 121.905 383.515,122.098 383.557,122.255 383.687 C 122.657 384.020,124.872 384.083,139.679 384.175 L 152.678 384.257 152.678 386.870 L 152.678 389.484 200.000 389.484 L 247.322 389.484 247.322 386.870 L 247.322 384.257 260.321 384.175 C 275.128 384.083,277.343 384.020,277.745 383.687 C 277.902 383.557,278.095 383.515,278.174 383.595 C 278.254 383.674,278.297 383.651,278.271 383.544 C 278.245 383.437,278.334 383.087,278.469 382.765 C 278.677 382.270,278.894 377.842,278.874 374.463 L 278.870 373.755 286.611 373.655 C 299.028 373.495,299.068 373.491,299.527 372.271 C 299.741 371.703,299.904 368.461,299.903 364.800 L 299.903 363.194 306.378 363.177 C 309.939 363.168,313.357 363.098,313.973 363.021 C 314.589 362.944,315.093 362.957,315.093 363.049 C 315.093 363.141,315.158 363.177,315.239 363.128 C 315.319 363.079,316.217 363.012,317.235 362.978 C 320.735 362.862,320.775 362.797,320.886 356.962 C 320.931 354.552,320.986 352.563,321.007 352.541 C 321.028 352.520,322.970 352.484,325.323 352.463 C 331.598 352.405,331.284 352.712,331.399 346.543 C 331.443 344.187,331.538 342.198,331.611 342.122 C 331.684 342.047,333.628 341.968,335.930 341.947 C 342.108 341.889,341.812 342.181,341.920 336.027 C 341.961 333.671,342.054 331.683,342.127 331.611 C 342.199 331.538,344.187 331.445,346.543 331.404 C 352.697 331.296,352.405 331.592,352.463 325.414 C 352.484 323.111,352.563 321.168,352.638 321.095 C 352.714 321.022,354.703 320.927,357.059 320.883 C 363.228 320.768,362.922 321.082,362.979 314.807 C 363.000 312.454,363.036 310.512,363.057 310.491 C 363.079 310.470,365.068 310.415,367.478 310.369 C 373.313 310.259,373.378 310.219,373.494 306.719 C 373.528 305.701,373.596 304.803,373.644 304.722 C 373.693 304.642,373.657 304.576,373.565 304.576 C 373.473 304.576,373.460 304.073,373.537 303.457 C 373.614 302.841,373.684 299.423,373.693 295.862 L 373.710 289.387 375.316 289.387 C 378.977 289.388,382.219 289.225,382.787 289.011 C 384.007 288.552,384.011 288.512,384.172 276.095 L 384.271 268.354 384.979 268.358 C 388.358 268.377,392.786 268.161,393.281 267.953 C 393.603 267.818,393.953 267.729,394.060 267.755 C 394.167 267.781,394.190 267.738,394.111 267.658 C 394.031 267.579,394.073 267.386,394.203 267.229 C 394.537 266.827,394.599 264.612,394.692 249.805 L 394.773 236.806 397.387 236.806 L 400.000 236.806 400.000 194.742 L 400.000 152.678 397.387 152.678 L 394.773 152.678 394.692 139.679 C 394.599 124.872,394.537 122.657,394.203 122.255 C 394.073 122.098,394.031 121.905,394.111 121.826 C 394.190 121.746,394.167 121.703,394.060 121.729 C 393.953 121.755,393.603 121.666,393.281 121.531 C 392.786 121.323,388.358 121.106,384.979 121.126 L 384.271 121.130 384.172 113.389 C 384.011 100.972,384.007 100.932,382.787 100.473 C 382.219 100.259,378.977 100.096,375.316 100.097 L 373.710 100.097 373.693 93.622 C 373.684 90.061,373.614 86.643,373.537 86.027 C 373.460 85.411,373.473 84.907,373.565 84.907 C 373.657 84.907,373.693 84.842,373.644 84.761 C 373.596 84.681,373.528 83.783,373.494 82.765 C 373.378 79.265,373.313 79.225,367.478 79.114 C 365.068 79.069,363.079 79.014,363.057 78.993 C 363.036 78.972,363.000 77.030,362.979 74.677 C 362.922 68.402,363.228 68.716,357.059 68.601 C 354.703 68.557,352.714 68.462,352.638 68.389 C 352.563 68.316,352.484 66.372,352.463 64.070 C 352.405 57.892,352.697 58.188,346.543 58.080 C 344.187 58.039,342.199 57.946,342.127 57.873 C 342.054 57.801,341.961 55.813,341.920 53.457 C 341.812 47.303,342.108 47.595,335.930 47.537 C 333.628 47.516,331.684 47.437,331.611 47.362 C 331.538 47.286,331.443 45.297,331.399 42.941 C 331.284 36.772,331.598 37.078,325.323 37.021 C 322.970 37.000,321.028 36.964,321.007 36.943 C 320.986 36.921,320.931 34.932,320.886 32.522 C 320.775 26.687,320.735 26.622,317.235 26.506 C 316.217 26.472,315.319 26.404,315.239 26.356 C 315.158 26.307,315.093 26.343,315.093 26.435 C 315.093 26.527,314.589 26.540,313.973 26.463 C 313.357 26.386,309.939 26.316,306.378 26.307 L 299.903 26.290 299.903 24.684 C 299.904 21.023,299.741 17.781,299.527 17.213 C 299.068 15.993,299.028 15.989,286.611 15.828 L 278.870 15.729 278.874 15.021 C 278.894 11.642,278.677 7.214,278.469 6.719 C 278.334 6.397,278.245 6.047,278.271 5.940 C 278.297 5.833,278.254 5.810,278.174 5.889 C 278.095 5.969,277.902 5.927,277.745 5.797 C 277.343 5.463,275.128 5.401,260.321 5.308 L 247.322 5.227 247.322 2.613 L 247.322 0.000 200.000 0.000 L 152.678 0.000 152.678 2.613 M238.474 9.167 C 239.986 9.441,242.020 10.398,242.275 10.957 C 242.385 11.196,242.639 11.699,242.839 12.074 C 243.040 12.449,243.308 13.369,243.436 14.119 C 243.769 16.078,244.504 17.219,246.393 18.712 L 247.357 19.474 258.282 19.474 C 272.818 19.474,273.818 19.731,274.809 23.709 C 274.909 24.111,275.025 24.572,275.066 24.732 C 275.107 24.893,275.147 25.274,275.155 25.579 C 275.173 26.247,275.903 26.980,277.736 28.172 L 279.036 29.017 285.367 29.017 C 295.788 29.017,296.657 29.434,297.205 34.708 L 297.442 36.992 298.666 38.214 L 299.889 39.435 306.858 39.543 C 315.546 39.678,316.225 39.823,317.448 41.802 C 317.865 42.477,318.402 45.143,318.403 46.538 C 318.403 47.985,320.575 50.049,322.098 50.049 C 323.375 50.048,326.388 50.614,326.388 50.854 C 326.388 50.947,326.503 51.022,326.643 51.022 C 326.925 51.022,327.704 51.836,328.104 52.548 C 328.413 53.100,328.919 55.867,328.919 57.015 C 328.919 58.621,331.031 61.434,332.383 61.629 C 336.119 62.169,337.787 63.826,338.368 67.575 C 338.627 69.248,341.136 71.853,342.776 72.154 C 343.242 72.239,343.666 72.322,343.720 72.339 C 343.773 72.355,344.124 72.440,344.499 72.528 C 347.068 73.127,348.418 74.837,348.892 78.092 C 349.049 79.172,350.210 80.758,351.603 81.797 C 352.641 82.571,352.906 82.682,354.138 82.856 C 356.288 83.160,357.735 84.006,358.378 85.334 C 359.354 87.351,359.366 87.446,359.481 93.963 L 359.591 100.195 360.264 101.031 C 361.309 102.331,362.930 103.575,363.744 103.703 C 369.270 104.568,370.010 105.951,370.010 115.420 L 370.010 121.079 370.783 122.049 C 372.142 123.756,373.489 124.715,374.781 124.894 C 377.240 125.235,378.691 125.993,379.363 127.288 C 380.437 129.358,380.406 128.962,380.477 141.166 L 380.543 152.536 381.114 153.365 C 382.396 155.228,383.876 156.222,385.881 156.564 C 386.631 156.692,387.551 156.960,387.926 157.161 C 388.301 157.361,388.797 157.612,389.028 157.719 C 389.583 157.975,390.583 160.076,390.838 161.526 C 390.974 162.299,391.042 173.286,391.042 194.742 C 391.042 216.198,390.974 227.185,390.838 227.958 C 390.583 229.407,389.583 231.509,389.028 231.765 C 388.797 231.872,388.301 232.123,387.926 232.323 C 387.551 232.524,386.631 232.792,385.881 232.920 C 383.876 233.262,382.396 234.256,381.114 236.119 L 380.543 236.948 380.477 248.318 C 380.406 260.522,380.437 260.126,379.363 262.196 C 378.691 263.491,377.240 264.249,374.781 264.590 C 373.489 264.769,372.142 265.728,370.783 267.435 L 370.010 268.405 370.010 274.064 C 370.010 283.533,369.270 284.916,363.744 285.781 C 362.930 285.909,361.309 287.153,360.264 288.453 L 359.591 289.289 359.481 295.521 C 359.366 302.038,359.354 302.133,358.378 304.150 C 357.735 305.478,356.288 306.324,354.138 306.628 C 352.906 306.802,352.641 306.913,351.603 307.687 C 350.210 308.726,349.049 310.312,348.892 311.392 C 348.418 314.647,347.068 316.357,344.499 316.956 C 344.124 317.044,343.773 317.129,343.720 317.145 C 343.666 317.162,343.242 317.245,342.776 317.330 C 341.136 317.631,338.627 320.236,338.368 321.908 C 337.786 325.666,336.122 327.314,332.359 327.858 C 330.739 328.093,328.146 330.622,327.846 332.260 C 327.761 332.726,327.678 333.150,327.661 333.204 C 327.645 333.257,327.560 333.608,327.472 333.982 C 326.873 336.552,325.163 337.902,321.908 338.376 C 320.828 338.533,319.242 339.693,318.203 341.087 C 317.429 342.125,317.318 342.390,317.144 343.622 C 316.840 345.772,315.994 347.219,314.666 347.862 C 312.649 348.838,312.554 348.850,306.031 348.965 L 299.794 349.075 298.890 349.816 C 297.494 350.961,296.408 352.487,296.208 353.583 C 295.243 358.874,294.023 359.494,284.574 359.494 L 278.910 359.494 277.439 360.867 C 275.751 362.443,275.253 363.169,275.104 364.265 C 274.553 368.320,273.224 369.405,267.934 370.117 C 262.899 370.795,259.436 371.035,253.407 371.121 L 247.126 371.211 245.988 372.349 C 244.872 373.465,244.847 373.514,244.725 374.816 C 244.278 379.578,243.518 380.677,240.214 381.328 C 238.186 381.728,161.814 381.728,159.786 381.328 C 157.605 380.898,156.770 380.345,156.088 378.875 C 155.631 377.891,155.505 377.261,155.275 374.816 C 155.153 373.512,155.130 373.467,153.996 372.333 L 152.841 371.178 142.000 371.163 C 136.037 371.155,131.027 371.123,130.867 371.092 C 130.706 371.060,130.005 370.976,129.309 370.903 C 126.846 370.648,124.830 369.759,124.830 368.929 C 124.830 368.800,124.709 368.594,124.562 368.472 C 124.249 368.213,123.922 366.638,123.738 364.504 L 123.607 362.991 122.326 361.729 L 121.045 360.467 114.674 360.467 C 104.206 360.467,103.343 360.054,102.795 354.776 L 102.558 352.492 101.334 351.270 L 100.111 350.049 93.142 349.941 C 84.454 349.806,83.775 349.661,82.552 347.682 C 82.135 347.007,81.598 344.341,81.597 342.945 C 81.597 341.499,79.425 339.435,77.902 339.435 C 76.625 339.436,73.612 338.870,73.612 338.630 C 73.612 338.537,73.497 338.462,73.357 338.462 C 73.075 338.462,72.296 337.647,71.896 336.936 C 71.579 336.371,71.081 333.607,71.081 332.408 C 71.081 331.121,68.873 328.919,67.583 328.919 C 64.708 328.919,61.538 327.734,61.538 326.659 C 61.538 326.528,61.455 326.391,61.352 326.355 C 61.124 326.275,60.565 323.156,60.565 321.961 C 60.565 320.611,58.400 318.403,57.076 318.403 C 55.877 318.402,53.113 317.905,52.548 317.587 C 51.836 317.188,51.022 316.409,51.022 316.127 C 51.022 315.987,50.947 315.871,50.854 315.871 C 50.614 315.871,50.048 312.859,50.049 311.582 C 50.049 310.510,50.043 310.500,48.734 309.218 L 47.420 307.930 46.056 307.816 C 39.926 307.304,39.707 306.920,39.543 296.342 L 39.435 289.373 38.214 288.150 L 36.992 286.926 34.742 286.691 C 29.434 286.138,29.017 285.272,29.017 274.810 L 29.017 268.439 27.753 267.156 L 26.489 265.873 24.880 265.718 C 23.996 265.632,23.228 265.550,23.174 265.537 C 23.121 265.523,22.668 265.446,22.168 265.366 C 21.668 265.285,21.153 265.092,21.024 264.937 C 20.895 264.781,20.684 264.654,20.555 264.654 C 19.725 264.654,18.836 262.638,18.581 260.175 C 18.508 259.479,18.424 258.778,18.392 258.617 C 18.361 258.457,18.329 253.447,18.321 247.484 L 18.306 236.643 17.148 235.485 L 15.990 234.327 14.373 234.170 C 13.483 234.084,12.712 234.002,12.658 233.989 C 12.605 233.976,12.225 233.898,11.813 233.816 C 10.322 233.518,9.389 232.859,8.738 231.646 C 7.885 230.055,7.887 230.137,7.887 194.742 C 7.887 159.347,7.885 159.429,8.738 157.838 C 9.389 156.625,10.322 155.966,11.813 155.668 C 12.225 155.586,12.605 155.508,12.658 155.495 C 12.712 155.481,13.483 155.400,14.373 155.314 L 15.990 155.157 17.148 153.999 L 18.306 152.841 18.321 142.000 C 18.329 136.037,18.361 131.027,18.392 130.867 C 18.424 130.706,18.508 130.005,18.581 129.309 C 18.836 126.846,19.725 124.830,20.555 124.830 C 20.684 124.830,20.895 124.702,21.024 124.547 C 21.153 124.392,21.668 124.199,22.168 124.118 C 22.668 124.038,23.121 123.961,23.174 123.947 C 23.228 123.934,23.996 123.852,24.880 123.766 L 26.489 123.611 27.715 122.366 L 28.942 121.121 29.191 117.766 C 30.062 106.043,30.809 104.556,36.256 103.703 C 37.070 103.575,38.691 102.331,39.736 101.031 L 40.409 100.195 40.519 93.963 C 40.634 87.446,40.646 87.351,41.622 85.334 C 42.265 84.006,43.712 83.160,45.862 82.856 C 47.094 82.682,47.359 82.571,48.397 81.797 C 49.790 80.758,50.951 79.172,51.108 78.092 C 51.582 74.837,52.932 73.127,55.501 72.528 C 55.876 72.440,56.227 72.355,56.280 72.339 C 56.334 72.322,56.758 72.239,57.224 72.154 C 58.864 71.853,61.373 69.248,61.632 67.575 C 62.214 63.818,63.878 62.170,67.641 61.625 C 69.261 61.391,71.854 58.862,72.154 57.224 C 72.239 56.758,72.322 56.334,72.339 56.280 C 72.355 56.227,72.440 55.876,72.528 55.501 C 73.127 52.932,74.837 51.582,78.092 51.108 C 79.172 50.951,80.758 49.790,81.797 48.397 C 82.571 47.359,82.682 47.094,82.856 45.862 C 83.160 43.712,84.006 42.265,85.334 41.622 C 87.351 40.646,87.446 40.634,93.969 40.519 L 100.206 40.409 101.110 39.668 C 102.506 38.523,103.592 36.997,103.792 35.901 C 104.756 30.611,105.977 29.990,115.420 29.990 L 121.079 29.990 122.049 29.217 C 123.756 27.858,124.715 26.511,124.894 25.219 C 125.653 19.739,126.430 19.474,141.718 19.474 L 152.643 19.474 153.607 18.712 C 155.496 17.219,156.231 16.078,156.564 14.119 C 156.692 13.369,156.960 12.449,157.161 12.074 C 157.361 11.699,157.615 11.196,157.725 10.957 C 157.966 10.429,159.982 9.443,161.344 9.186 C 162.777 8.915,236.982 8.897,238.474 9.167 M161.741 140.652 C 160.679 141.716,160.299 142.241,160.198 142.781 C 159.671 145.620,155.892 149.562,153.698 149.562 C 152.767 149.562,150.260 151.763,149.818 152.970 C 149.700 153.291,149.458 153.965,149.280 154.466 C 148.294 157.238,145.512 159.681,142.746 160.203 C 142.250 160.297,141.680 160.715,140.652 161.741 L 139.241 163.150 139.241 173.655 L 139.241 184.161 139.971 184.415 C 140.485 184.595,142.772 184.713,147.712 184.814 C 160.007 185.066,161.272 185.638,162.116 191.318 C 162.280 192.425,162.415 193.635,162.415 194.006 C 162.415 195.305,162.508 195.326,168.274 195.326 C 180.975 195.326,182.857 196.341,183.375 203.467 C 183.543 205.785,183.700 205.942,186.035 206.109 C 191.900 206.530,193.478 208.117,193.896 214.013 C 194.058 216.291,194.226 216.458,196.515 216.624 C 203.675 217.144,204.674 218.996,204.674 231.760 C 204.674 237.932,204.437 237.430,207.498 237.738 C 213.477 238.339,214.146 239.156,215.173 247.128 C 215.290 248.038,215.488 249.111,215.613 249.513 L 215.839 250.243 221.092 250.243 L 226.345 250.243 227.750 248.815 C 228.784 247.764,229.191 247.201,229.287 246.686 C 229.858 243.642,232.463 240.988,236.026 239.820 C 237.432 239.360,239.188 237.721,239.646 236.443 C 241.193 232.130,242.646 230.677,246.959 229.130 C 247.566 228.913,248.220 228.431,248.955 227.660 L 250.049 226.514 250.049 210.574 L 250.049 194.634 248.729 193.325 L 247.410 192.016 236.884 192.016 L 226.358 192.016 224.993 191.551 C 221.777 190.457,220.116 188.787,218.967 185.492 C 218.504 184.163,218.246 183.755,217.214 182.717 L 216.005 181.500 210.637 181.500 L 205.269 181.500 203.707 180.929 C 200.582 179.789,198.932 178.061,197.839 174.784 C 197.247 173.010,195.510 171.169,194.006 170.722 C 190.568 169.701,188.463 167.704,187.359 164.417 C 186.966 163.248,186.952 162.838,186.952 152.640 L 186.952 142.073 185.545 140.657 L 184.138 139.241 173.644 139.241 L 163.150 139.241 161.741 140.652 M288.072 151.344 L 286.660 152.723 286.660 158.146 C 286.660 164.046,286.611 164.371,285.378 166.577 C 284.384 168.355,281.891 170.146,279.546 170.768 C 278.447 171.059,276.505 172.999,276.069 174.242 C 274.725 178.072,272.958 179.965,269.718 181.045 C 266.706 182.049,266.458 186.300,269.356 187.249 C 272.893 188.408,276.144 191.905,276.144 194.551 C 276.144 194.677,276.728 195.385,277.442 196.124 L 278.740 197.468 284.202 197.468 L 289.664 197.468 290.937 196.154 C 292.018 195.038,292.283 194.621,292.691 193.392 C 293.781 190.110,295.619 188.354,299.124 187.245 C 299.975 186.975,300.465 186.633,301.509 185.578 L 302.824 184.250 302.824 173.766 L 302.824 163.281 301.381 161.848 C 300.171 160.647,299.726 160.341,298.626 159.956 C 295.396 158.827,293.457 156.792,292.495 153.524 C 292.326 152.949,291.856 152.318,290.871 151.340 L 289.484 149.966 288.072 151.344 " stroke="none" fill="#1b73c0" fill-rule="evenodd"></path><path id="path3" d="M161.344 9.186 C 159.982 9.443,157.966 10.429,157.725 10.957 C 157.615 11.196,157.361 11.699,157.161 12.074 C 156.960 12.449,156.692 13.369,156.564 14.119 C 156.231 16.078,155.496 17.219,153.607 18.712 L 152.643 19.474 141.718 19.474 C 126.430 19.474,125.653 19.739,124.894 25.219 C 124.715 26.511,123.756 27.858,122.049 29.217 L 121.079 29.990 115.420 29.990 C 105.977 29.990,104.756 30.611,103.792 35.901 C 103.592 36.997,102.506 38.523,101.110 39.668 L 100.206 40.409 93.969 40.519 C 87.446 40.634,87.351 40.646,85.334 41.622 C 84.006 42.265,83.160 43.712,82.856 45.862 C 82.682 47.094,82.571 47.359,81.797 48.397 C 80.758 49.790,79.172 50.951,78.092 51.108 C 74.837 51.582,73.127 52.932,72.528 55.501 C 72.440 55.876,72.355 56.227,72.339 56.280 C 72.322 56.334,72.239 56.758,72.154 57.224 C 71.854 58.862,69.261 61.391,67.641 61.625 C 63.878 62.170,62.214 63.818,61.632 67.575 C 61.373 69.248,58.864 71.853,57.224 72.154 C 56.758 72.239,56.334 72.322,56.280 72.339 C 56.227 72.355,55.876 72.440,55.501 72.528 C 52.932 73.127,51.582 74.837,51.108 78.092 C 50.951 79.172,49.790 80.758,48.397 81.797 C 47.359 82.571,47.094 82.682,45.862 82.856 C 43.712 83.160,42.265 84.006,41.622 85.334 C 40.646 87.351,40.634 87.446,40.519 93.963 L 40.409 100.195 39.736 101.031 C 38.691 102.331,37.070 103.575,36.256 103.703 C 30.809 104.556,30.062 106.043,29.191 117.766 L 28.942 121.121 27.715 122.366 L 26.489 123.611 24.880 123.766 C 23.996 123.852,23.228 123.934,23.174 123.947 C 23.121 123.961,22.668 124.038,22.168 124.118 C 21.668 124.199,21.153 124.392,21.024 124.547 C 20.895 124.702,20.684 124.830,20.555 124.830 C 19.725 124.830,18.836 126.846,18.581 129.309 C 18.508 130.005,18.424 130.706,18.392 130.867 C 18.361 131.027,18.329 136.037,18.321 142.000 L 18.306 152.841 17.148 153.999 L 15.990 155.157 14.373 155.314 C 13.483 155.400,12.712 155.481,12.658 155.495 C 12.605 155.508,12.225 155.586,11.813 155.668 C 10.322 155.966,9.389 156.625,8.738 157.838 C 7.885 159.429,7.887 159.347,7.887 194.742 C 7.887 230.137,7.885 230.055,8.738 231.646 C 9.389 232.859,10.322 233.518,11.813 233.816 C 12.225 233.898,12.605 233.976,12.658 233.989 C 12.712 234.002,13.483 234.084,14.373 234.170 L 15.990 234.327 17.148 235.485 L 18.306 236.643 18.321 247.484 C 18.329 253.447,18.361 258.457,18.392 258.617 C 18.424 258.778,18.508 259.479,18.581 260.175 C 18.836 262.638,19.725 264.654,20.555 264.654 C 20.684 264.654,20.895 264.781,21.024 264.937 C 21.153 265.092,21.668 265.285,22.168 265.366 C 22.668 265.446,23.121 265.523,23.174 265.537 C 23.228 265.550,23.996 265.632,24.880 265.718 L 26.489 265.873 27.753 267.156 L 29.017 268.439 29.017 274.810 C 29.017 285.272,29.434 286.138,34.742 286.691 L 36.992 286.926 38.214 288.150 L 39.435 289.373 39.543 296.342 C 39.707 306.920,39.926 307.304,46.056 307.816 L 47.420 307.930 48.734 309.218 C 50.043 310.500,50.049 310.510,50.049 311.582 C 50.048 312.859,50.614 315.871,50.854 315.871 C 50.947 315.871,51.022 315.987,51.022 316.127 C 51.022 316.409,51.836 317.188,52.548 317.587 C 53.113 317.905,55.877 318.402,57.076 318.403 C 58.400 318.403,60.565 320.611,60.565 321.961 C 60.565 323.156,61.124 326.275,61.352 326.355 C 61.455 326.391,61.538 326.528,61.538 326.659 C 61.538 327.734,64.708 328.919,67.583 328.919 C 68.873 328.919,71.081 331.121,71.081 332.408 C 71.081 333.607,71.579 336.371,71.896 336.936 C 72.296 337.647,73.075 338.462,73.357 338.462 C 73.497 338.462,73.612 338.537,73.612 338.630 C 73.612 338.870,76.625 339.436,77.902 339.435 C 79.425 339.435,81.597 341.499,81.597 342.945 C 81.598 344.341,82.135 347.007,82.552 347.682 C 83.775 349.661,84.454 349.806,93.142 349.941 L 100.111 350.049 101.334 351.270 L 102.558 352.492 102.795 354.776 C 103.343 360.054,104.206 360.467,114.674 360.467 L 121.045 360.467 122.326 361.729 L 123.607 362.991 123.738 364.504 C 123.922 366.638,124.249 368.213,124.562 368.472 C 124.709 368.594,124.830 368.800,124.830 368.929 C 124.830 369.759,126.846 370.648,129.309 370.903 C 130.005 370.976,130.706 371.060,130.867 371.092 C 131.027 371.123,136.037 371.155,142.000 371.163 L 152.841 371.178 153.996 372.333 C 155.130 373.467,155.153 373.512,155.275 374.816 C 155.722 379.578,156.482 380.677,159.786 381.328 C 161.814 381.728,238.186 381.728,240.214 381.328 C 242.395 380.898,243.230 380.345,243.912 378.875 C 244.369 377.891,244.495 377.261,244.725 374.816 C 244.847 373.514,244.872 373.465,245.988 372.349 L 247.126 371.211 253.407 371.121 C 259.436 371.035,262.899 370.795,267.934 370.117 C 273.224 369.405,274.553 368.320,275.104 364.265 C 275.253 363.169,275.751 362.443,277.439 360.867 L 278.910 359.494 284.574 359.494 C 294.023 359.494,295.243 358.874,296.208 353.583 C 296.408 352.487,297.494 350.961,298.890 349.816 L 299.794 349.075 306.031 348.965 C 312.554 348.850,312.649 348.838,314.666 347.862 C 315.994 347.219,316.840 345.772,317.144 343.622 C 317.318 342.390,317.429 342.125,318.203 341.087 C 319.242 339.693,320.828 338.533,321.908 338.376 C 325.163 337.902,326.873 336.552,327.472 333.982 C 327.560 333.608,327.645 333.257,327.661 333.204 C 327.678 333.150,327.761 332.726,327.846 332.260 C 328.146 330.622,330.739 328.093,332.359 327.858 C 336.122 327.314,337.786 325.666,338.368 321.908 C 338.627 320.236,341.136 317.631,342.776 317.330 C 343.242 317.245,343.666 317.162,343.720 317.145 C 343.773 317.129,344.124 317.044,344.499 316.956 C 347.068 316.357,348.418 314.647,348.892 311.392 C 349.049 310.312,350.210 308.726,351.603 307.687 C 352.641 306.913,352.906 306.802,354.138 306.628 C 356.288 306.324,357.735 305.478,358.378 304.150 C 359.354 302.133,359.366 302.038,359.481 295.521 L 359.591 289.289 360.264 288.453 C 361.309 287.153,362.930 285.909,363.744 285.781 C 369.270 284.916,370.010 283.533,370.010 274.064 L 370.010 268.405 370.783 267.435 C 372.142 265.728,373.489 264.769,374.781 264.590 C 377.240 264.249,378.691 263.491,379.363 262.196 C 380.437 260.126,380.406 260.522,380.477 248.318 L 380.543 236.948 381.114 236.119 C 382.396 234.256,383.876 233.262,385.881 232.920 C 386.631 232.792,387.551 232.524,387.926 232.323 C 388.301 232.123,388.797 231.872,389.028 231.765 C 389.583 231.509,390.583 229.407,390.838 227.958 C 390.974 227.185,391.042 216.198,391.042 194.742 C 391.042 173.286,390.974 162.299,390.838 161.526 C 390.583 160.076,389.583 157.975,389.028 157.719 C 388.797 157.612,388.301 157.361,387.926 157.161 C 387.551 156.960,386.631 156.692,385.881 156.564 C 383.876 156.222,382.396 155.228,381.114 153.365 L 380.543 152.536 380.477 141.166 C 380.406 128.962,380.437 129.358,379.363 127.288 C 378.691 125.993,377.240 125.235,374.781 124.894 C 373.489 124.715,372.142 123.756,370.783 122.049 L 370.010 121.079 370.010 115.420 C 370.010 105.951,369.270 104.568,363.744 103.703 C 362.930 103.575,361.309 102.331,360.264 101.031 L 359.591 100.195 359.481 93.963 C 359.366 87.446,359.354 87.351,358.378 85.334 C 357.735 84.006,356.288 83.160,354.138 82.856 C 352.906 82.682,352.641 82.571,351.603 81.797 C 350.210 80.758,349.049 79.172,348.892 78.092 C 348.418 74.837,347.068 73.127,344.499 72.528 C 344.124 72.440,343.773 72.355,343.720 72.339 C 343.666 72.322,343.242 72.239,342.776 72.154 C 341.136 71.853,338.627 69.248,338.368 67.575 C 337.787 63.826,336.119 62.169,332.383 61.629 C 331.031 61.434,328.919 58.621,328.919 57.015 C 328.919 55.867,328.413 53.100,328.104 52.548 C 327.704 51.836,326.925 51.022,326.643 51.022 C 326.503 51.022,326.388 50.947,326.388 50.854 C 326.388 50.614,323.375 50.048,322.098 50.049 C 320.575 50.049,318.403 47.985,318.403 46.538 C 318.402 45.143,317.865 42.477,317.448 41.802 C 316.225 39.823,315.546 39.678,306.858 39.543 L 299.889 39.435 298.666 38.214 L 297.442 36.992 297.205 34.708 C 296.657 29.434,295.788 29.017,285.367 29.017 L 279.036 29.017 277.736 28.172 C 275.903 26.980,275.173 26.247,275.155 25.579 C 275.147 25.274,275.107 24.893,275.066 24.732 C 275.025 24.572,274.909 24.111,274.809 23.709 C 273.818 19.731,272.818 19.474,258.282 19.474 L 247.357 19.474 246.393 18.712 C 244.504 17.219,243.769 16.078,243.436 14.119 C 243.308 13.369,243.040 12.449,242.839 12.074 C 242.639 11.699,242.385 11.196,242.275 10.957 C 242.020 10.398,239.986 9.441,238.474 9.167 C 236.982 8.897,162.777 8.915,161.344 9.186 M269.007 28.676 C 271.611 32.683,275.564 34.076,284.341 34.078 L 289.713 34.080 290.394 34.610 C 291.396 35.391,292.213 36.567,292.597 37.780 C 293.509 40.664,295.329 42.734,297.941 43.862 L 299.416 44.499 305.173 44.596 L 310.929 44.693 311.557 45.222 C 312.651 46.143,313.148 46.873,313.613 48.240 C 314.818 51.784,316.591 53.596,319.960 54.724 C 322.462 55.563,323.528 56.718,324.146 59.259 C 325.253 63.817,326.795 66.401,329.283 67.868 L 330.275 68.452 330.273 73.320 C 330.270 83.303,329.975 89.457,329.458 90.301 C 328.554 91.778,327.167 94.995,327.167 95.613 C 327.167 95.787,327.093 96.013,327.002 96.115 C 326.912 96.217,326.640 97.155,326.398 98.200 C 325.672 101.331,324.108 103.258,320.885 104.993 C 318.610 106.217,316.964 107.834,315.676 110.110 C 314.375 112.410,313.314 113.649,311.757 114.689 L 310.569 115.482 284.293 115.482 L 258.018 115.482 257.198 115.064 C 255.803 114.353,253.934 112.282,252.709 110.093 C 251.385 107.724,249.884 106.238,247.629 105.064 C 245.837 104.130,244.440 102.947,243.298 101.396 L 242.454 100.249 242.454 79.012 L 242.454 57.775 243.041 56.860 C 243.951 55.442,245.683 53.927,247.712 52.775 C 250.924 50.950,252.819 48.609,253.050 46.181 C 253.115 45.500,253.203 44.886,253.245 44.818 C 253.287 44.749,253.380 44.211,253.453 43.622 C 253.751 41.187,255.376 39.069,257.265 38.654 C 258.199 38.449,259.376 36.988,259.389 36.015 C 259.400 35.254,260.145 32.568,260.595 31.668 C 261.709 29.442,263.659 28.419,268.202 27.676 C 268.279 27.664,268.641 28.113,269.007 28.676 M39.436 112.366 C 44.814 113.620,45.959 115.980,45.959 125.803 L 45.959 131.400 45.009 133.324 C 44.011 135.344,43.281 137.317,42.749 139.435 C 41.647 143.814,41.595 143.977,40.576 146.154 C 39.769 147.877,38.528 149.563,36.893 151.155 L 35.443 152.568 35.443 157.769 L 35.443 162.970 34.486 164.883 C 33.513 166.829,32.567 169.439,32.134 171.373 C 32.002 171.962,31.816 172.645,31.721 172.891 C 31.623 173.144,31.548 184.891,31.548 199.865 L 31.548 226.391 32.333 227.592 C 33.331 229.119,34.836 230.496,36.432 231.342 C 38.803 232.600,40.345 233.943,41.461 235.725 L 42.064 236.688 42.064 247.330 L 42.064 257.973 42.809 259.123 C 43.808 260.666,45.346 262.024,47.384 263.161 C 49.432 264.305,50.745 265.455,51.791 267.022 L 52.580 268.204 52.580 273.604 L 52.580 279.005 53.325 280.155 C 54.336 281.716,55.978 283.166,57.991 284.275 C 61.182 286.033,62.736 287.996,63.588 291.348 C 65.079 297.210,67.316 301.458,68.917 301.462 C 73.709 301.475,77.507 305.321,77.507 310.159 C 77.507 310.346,77.832 310.832,78.228 311.238 L 78.950 311.977 84.566 311.977 C 95.116 311.977,97.651 313.434,98.455 319.961 C 98.643 321.491,99.524 322.401,100.995 322.584 C 106.110 323.223,109.020 326.293,109.052 331.083 C 109.056 331.604,109.786 332.380,111.871 334.080 C 112.841 334.870,113.243 335.235,115.117 337.030 C 116.483 338.338,117.260 339.190,118.849 341.119 C 120.937 343.654,122.484 344.668,126.193 345.932 C 130.179 347.291,131.081 347.416,136.922 347.418 L 142.296 347.420 143.446 348.173 C 145.133 349.279,146.445 350.808,147.629 353.052 C 148.459 354.625,149.829 356.134,151.349 357.149 L 152.527 357.936 189.594 357.936 C 210.704 357.936,226.854 357.861,227.109 357.763 C 227.355 357.668,228.038 357.481,228.627 357.349 C 229.745 357.097,231.174 356.670,231.840 356.389 C 232.055 356.298,232.668 356.069,233.204 355.879 C 233.739 355.689,234.806 355.198,235.574 354.787 L 236.970 354.041 242.201 354.041 L 247.432 354.041 248.845 352.591 C 251.043 350.333,252.910 349.156,256.475 347.780 C 257.642 347.330,270.322 347.409,272.347 347.879 C 274.063 348.277,275.560 348.882,275.560 349.177 C 275.560 349.282,275.669 349.370,275.803 349.374 C 276.098 349.383,277.018 350.821,277.188 351.540 C 277.256 351.824,277.359 352.183,277.418 352.336 C 277.492 352.528,277.040 352.897,275.964 353.522 C 273.082 355.196,270.507 357.830,268.982 360.662 C 267.730 362.986,266.863 363.497,261.441 365.101 L 259.104 365.793 252.970 365.916 C 246.312 366.049,246.250 366.058,244.112 367.282 C 242.166 368.395,240.811 370.297,239.641 373.556 C 239.415 374.186,238.974 374.782,238.238 375.455 L 237.164 376.436 200.000 376.436 L 162.836 376.436 161.762 375.455 C 161.026 374.782,160.585 374.186,160.359 373.556 C 159.153 370.196,157.807 368.354,155.708 367.191 C 153.389 365.907,153.533 365.920,141.816 365.920 L 131.220 365.920 130.005 364.703 C 129.186 363.882,128.748 363.274,128.661 362.836 C 128.109 360.047,125.851 357.329,123.101 356.142 L 121.616 355.501 115.863 355.404 L 110.110 355.307 109.517 354.820 C 108.572 354.043,107.769 352.860,107.403 351.704 C 106.491 348.820,104.671 346.750,102.059 345.622 L 100.584 344.985 94.827 344.888 L 89.071 344.791 88.443 344.262 C 87.349 343.341,86.852 342.611,86.387 341.244 C 85.182 337.700,83.409 335.888,80.040 334.760 C 77.801 334.009,76.588 332.837,75.871 330.728 C 74.652 327.144,72.614 325.107,69.294 324.154 C 67.403 323.611,65.882 322.071,65.313 320.122 C 64.359 316.855,62.312 314.822,58.756 313.613 C 56.647 312.896,55.475 311.683,54.724 309.444 C 53.596 306.075,51.784 304.302,48.240 303.097 C 46.873 302.632,46.143 302.135,45.222 301.041 L 44.693 300.413 44.596 294.657 L 44.499 288.900 43.858 287.415 C 42.717 284.772,40.716 283.017,37.780 282.083 C 34.479 281.033,34.198 280.383,34.080 273.530 L 33.982 267.868 33.341 266.383 C 32.154 263.633,29.437 261.375,26.648 260.822 C 26.210 260.736,25.602 260.298,24.781 259.479 L 23.564 258.264 23.564 247.668 C 23.564 235.953,23.576 236.087,22.295 233.788 C 21.106 231.654,19.178 230.199,16.358 229.307 C 15.538 229.048,15.025 228.702,14.167 227.831 L 13.048 226.694 13.048 194.742 L 13.048 162.790 14.167 161.653 C 15.025 160.782,15.538 160.436,16.358 160.177 C 19.178 159.285,21.106 157.830,22.295 155.696 C 23.576 153.397,23.564 153.531,23.564 141.816 L 23.564 131.220 24.781 130.005 C 25.602 129.186,26.210 128.748,26.648 128.661 C 30.708 127.857,32.968 125.155,34.468 119.310 C 35.110 116.807,35.813 114.565,36.621 112.438 C 36.840 111.863,37.233 111.853,39.436 112.366 M237.865 127.264 C 239.137 128.109,240.645 129.685,241.377 130.936 L 241.931 131.882 241.799 140.186 C 241.580 153.983,241.803 152.960,238.559 155.048 L 237.098 155.988 226.351 155.988 L 215.603 155.988 214.666 155.178 C 214.151 154.732,213.452 154.009,213.114 153.571 L 212.499 152.775 212.407 146.738 C 212.316 140.742,212.076 138.287,210.989 132.210 C 210.778 131.029,212.509 128.743,214.685 127.329 L 215.834 126.582 226.336 126.582 L 236.838 126.582 237.865 127.264 M185.545 140.657 L 186.952 142.073 186.952 152.640 C 186.952 162.838,186.966 163.248,187.359 164.417 C 188.463 167.704,190.568 169.701,194.006 170.722 C 195.510 171.169,197.247 173.010,197.839 174.784 C 198.932 178.061,200.582 179.789,203.707 180.929 L 205.269 181.500 210.637 181.500 L 216.005 181.500 217.214 182.717 C 218.246 183.755,218.504 184.163,218.967 185.492 C 220.116 188.787,221.777 190.457,224.993 191.551 L 226.358 192.016 236.884 192.016 L 247.410 192.016 248.729 193.325 L 250.049 194.634 250.049 210.574 L 250.049 226.514 248.955 227.660 C 248.220 228.431,247.566 228.913,246.959 229.130 C 242.646 230.677,241.193 232.130,239.646 236.443 C 239.188 237.721,237.432 239.360,236.026 239.820 C 232.463 240.988,229.858 243.642,229.287 246.686 C 229.191 247.201,228.784 247.764,227.750 248.815 L 226.345 250.243 221.092 250.243 L 215.839 250.243 215.613 249.513 C 215.488 249.111,215.290 248.038,215.173 247.128 C 214.146 239.156,213.477 238.339,207.498 237.738 C 204.437 237.430,204.674 237.932,204.674 231.760 C 204.674 218.996,203.675 217.144,196.515 216.624 C 194.226 216.458,194.058 216.291,193.896 214.013 C 193.478 208.117,191.900 206.530,186.035 206.109 C 183.700 205.942,183.543 205.785,183.375 203.467 C 182.857 196.341,180.975 195.326,168.274 195.326 C 162.508 195.326,162.415 195.305,162.415 194.006 C 162.415 193.635,162.280 192.425,162.116 191.318 C 161.272 185.638,160.007 185.066,147.712 184.814 C 142.772 184.713,140.485 184.595,139.971 184.415 L 139.241 184.161 139.241 173.655 L 139.241 163.150 140.652 161.741 C 141.680 160.715,142.250 160.297,142.746 160.203 C 145.512 159.681,148.294 157.238,149.280 154.466 C 149.458 153.965,149.700 153.291,149.818 152.970 C 150.260 151.763,152.767 149.562,153.698 149.562 C 155.892 149.562,159.671 145.620,160.198 142.781 C 160.299 142.241,160.679 141.716,161.741 140.652 L 163.150 139.241 173.644 139.241 L 184.138 139.241 185.545 140.657 M292.495 153.524 C 293.457 156.792,295.396 158.827,298.626 159.956 C 299.726 160.341,300.171 160.647,301.381 161.848 L 302.824 163.281 302.824 173.766 L 302.824 184.250 301.509 185.578 C 300.465 186.633,299.975 186.975,299.124 187.245 C 295.619 188.354,293.781 190.110,292.691 193.392 C 292.283 194.621,292.018 195.038,290.937 196.154 L 289.664 197.468 284.202 197.468 L 278.740 197.468 277.442 196.124 C 276.728 195.385,276.144 194.677,276.144 194.551 C 276.144 191.905,272.893 188.408,269.356 187.249 C 266.458 186.300,266.706 182.049,269.718 181.045 C 272.958 179.965,274.725 178.072,276.069 174.242 C 276.505 172.999,278.447 171.059,279.546 170.768 C 281.891 170.146,284.384 168.355,285.378 166.577 C 286.611 164.371,286.660 164.046,286.660 158.146 L 286.660 152.723 288.072 151.344 L 289.484 149.966 290.871 151.340 C 291.856 152.318,292.326 152.949,292.495 153.524 " stroke="none" fill="#71b5ff" fill-rule="evenodd"></path><path id="path4" d="M124.495 5.401 C 125.007 5.442,125.795 5.441,126.247 5.400 C 126.699 5.359,126.280 5.327,125.316 5.327 C 124.352 5.328,123.983 5.361,124.495 5.401 M273.862 5.401 C 274.374 5.442,275.162 5.441,275.614 5.400 C 276.066 5.359,275.648 5.327,274.684 5.327 C 273.720 5.328,273.350 5.361,273.862 5.401 M121.644 5.701 C 121.407 5.874,121.282 6.297,121.228 7.112 C 121.154 8.219,121.199 8.121,121.437 6.656 C 121.517 6.162,121.690 5.944,122.163 5.738 C 122.636 5.533,122.689 5.466,122.384 5.460 C 122.163 5.456,121.830 5.564,121.644 5.701 M277.837 5.738 C 278.310 5.944,278.483 6.162,278.563 6.656 C 278.801 8.121,278.846 8.219,278.772 7.112 C 278.690 5.879,278.387 5.446,277.616 5.460 C 277.311 5.466,277.364 5.533,277.837 5.738 M103.463 15.917 C 103.975 15.958,104.763 15.957,105.215 15.916 C 105.667 15.876,105.248 15.843,104.284 15.843 C 103.320 15.844,102.951 15.877,103.463 15.917 M294.894 15.917 C 295.406 15.958,296.195 15.957,296.647 15.916 C 297.099 15.876,296.680 15.843,295.716 15.843 C 294.752 15.844,294.382 15.877,294.894 15.917 M100.401 16.402 C 100.234 16.640,100.107 17.144,100.118 17.521 L 100.139 18.208 100.327 17.365 C 100.479 16.687,100.637 16.469,101.134 16.253 L 101.753 15.984 101.228 15.976 C 100.901 15.972,100.590 16.132,100.401 16.402 M298.866 16.253 C 299.363 16.469,299.521 16.687,299.673 17.365 L 299.861 18.208 299.882 17.521 C 299.909 16.615,299.443 15.967,298.772 15.976 L 298.247 15.984 298.866 16.253 M82.327 26.433 C 82.782 26.474,83.527 26.474,83.982 26.433 C 84.438 26.392,84.065 26.358,83.155 26.358 C 82.244 26.358,81.872 26.392,82.327 26.433 M316.018 26.433 C 316.473 26.474,317.218 26.474,317.673 26.433 C 318.128 26.392,317.756 26.358,316.845 26.358 C 315.935 26.358,315.562 26.392,316.018 26.433 M79.576 26.735 C 79.366 26.889,79.204 27.321,79.156 27.855 C 79.085 28.644,79.092 28.661,79.229 28.036 C 79.438 27.082,79.578 26.907,80.292 26.700 C 80.864 26.535,80.874 26.519,80.417 26.502 C 80.143 26.493,79.765 26.598,79.576 26.735 M319.708 26.700 C 320.422 26.907,320.562 27.082,320.771 28.036 C 320.908 28.661,320.915 28.644,320.844 27.855 C 320.757 26.889,320.371 26.475,319.583 26.502 C 319.126 26.519,319.136 26.535,319.708 26.700 M74.927 36.951 C 75.704 36.988,76.974 36.988,77.751 36.951 C 78.527 36.914,77.892 36.884,76.339 36.884 C 74.786 36.884,74.150 36.914,74.927 36.951 M322.249 36.951 C 323.026 36.988,324.296 36.988,325.073 36.951 C 325.850 36.914,325.214 36.884,323.661 36.884 C 322.108 36.884,321.473 36.914,322.249 36.951 M69.060 37.251 C 68.850 37.405,68.688 37.837,68.640 38.371 C 68.569 39.160,68.576 39.177,68.713 38.552 C 68.922 37.598,69.061 37.423,69.776 37.216 C 70.348 37.051,70.358 37.035,69.901 37.019 C 69.627 37.009,69.249 37.114,69.060 37.251 M330.224 37.216 C 330.939 37.423,331.078 37.598,331.287 38.552 C 331.424 39.177,331.431 39.160,331.360 38.371 C 331.273 37.406,330.887 36.991,330.099 37.019 C 329.642 37.035,329.652 37.051,330.224 37.216 M68.397 44.639 L 68.354 47.311 65.677 47.371 L 62.999 47.432 65.683 47.474 C 68.852 47.525,68.581 47.813,68.500 44.488 L 68.439 41.967 68.397 44.639 M331.540 44.742 L 331.548 47.420 334.226 47.428 L 336.904 47.437 334.280 47.374 L 331.656 47.311 331.594 44.688 L 331.531 42.064 331.540 44.742 M58.423 47.907 C 58.208 48.121,58.038 48.537,58.044 48.832 C 58.055 49.340,58.067 49.333,58.288 48.685 C 58.463 48.171,58.687 47.947,59.202 47.771 C 59.849 47.551,59.856 47.538,59.348 47.528 C 59.053 47.522,58.637 47.692,58.423 47.907 M340.798 47.771 C 341.313 47.947,341.537 48.171,341.712 48.685 C 341.933 49.333,341.945 49.340,341.956 48.832 C 341.970 48.145,341.339 47.514,340.652 47.528 C 340.144 47.538,340.151 47.551,340.798 47.771 M57.881 55.155 L 57.838 57.827 55.161 57.888 L 52.483 57.948 55.167 57.990 C 58.336 58.041,58.065 58.329,57.984 55.004 L 57.923 52.483 57.881 55.155 M342.056 55.258 L 342.064 57.936 344.742 57.944 L 347.420 57.953 344.796 57.890 L 342.173 57.827 342.110 55.204 L 342.047 52.580 342.056 55.258 M47.907 58.423 C 47.692 58.637,47.522 59.053,47.528 59.348 C 47.538 59.856,47.551 59.849,47.771 59.202 C 47.947 58.687,48.171 58.463,48.685 58.288 C 49.333 58.067,49.340 58.055,48.832 58.044 C 48.537 58.038,48.121 58.208,47.907 58.423 M351.315 58.288 C 351.829 58.463,352.053 58.687,352.229 59.202 C 352.449 59.849,352.462 59.856,352.472 59.348 C 352.486 58.661,351.855 58.030,351.168 58.044 C 350.660 58.055,350.667 58.067,351.315 58.288 M47.365 65.671 L 47.322 68.343 44.645 68.404 L 41.967 68.464 44.651 68.506 C 47.820 68.557,47.549 68.845,47.468 65.520 L 47.407 62.999 47.365 65.671 M352.572 65.774 L 352.580 68.452 355.258 68.460 L 357.936 68.469 355.312 68.406 L 352.689 68.344 352.626 65.720 L 352.563 63.096 352.572 65.774 M37.640 68.748 C 37.198 68.925,36.882 69.694,37.064 70.147 C 37.120 70.288,37.172 70.221,37.180 69.998 C 37.205 69.343,37.666 68.897,38.477 68.741 C 39.139 68.613,39.163 68.593,38.656 68.584 C 38.335 68.578,37.878 68.652,37.640 68.748 M361.448 68.713 C 362.402 68.922,362.577 69.061,362.784 69.776 C 362.949 70.348,362.965 70.358,362.981 69.901 C 363.009 69.113,362.594 68.727,361.629 68.640 C 360.840 68.569,360.823 68.576,361.448 68.713 M36.884 76.339 C 36.884 77.892,36.914 78.527,36.951 77.751 C 36.988 76.974,36.988 75.704,36.951 74.927 C 36.914 74.150,36.884 74.786,36.884 76.339 M363.076 76.339 C 363.076 77.892,363.107 78.527,363.144 77.751 C 363.181 76.974,363.181 75.704,363.144 74.927 C 363.107 74.150,363.076 74.786,363.076 76.339 M27.124 79.264 C 26.682 79.441,26.366 80.210,26.548 80.664 C 26.604 80.804,26.656 80.737,26.664 80.514 C 26.689 79.859,27.149 79.413,27.961 79.257 C 28.623 79.130,28.647 79.109,28.140 79.100 C 27.819 79.094,27.361 79.168,27.124 79.264 M371.964 79.229 C 372.918 79.438,373.093 79.578,373.300 80.292 C 373.465 80.864,373.481 80.874,373.498 80.417 C 373.525 79.629,373.111 79.243,372.145 79.156 C 371.356 79.085,371.339 79.092,371.964 79.229 M26.358 83.155 C 26.358 84.065,26.392 84.438,26.433 83.982 C 26.474 83.527,26.474 82.782,26.433 82.327 C 26.392 81.872,26.358 82.244,26.358 83.155 M373.583 83.155 C 373.583 84.065,373.617 84.438,373.658 83.982 C 373.699 83.527,373.699 82.782,373.658 82.327 C 373.617 81.872,373.583 82.244,373.583 83.155 M16.402 100.401 C 16.132 100.590,15.972 100.901,15.976 101.228 L 15.984 101.753 16.253 101.134 C 16.469 100.637,16.687 100.479,17.365 100.327 L 18.208 100.139 17.521 100.118 C 17.144 100.107,16.640 100.234,16.402 100.401 M382.635 100.327 C 383.313 100.479,383.531 100.637,383.747 101.134 L 384.016 101.753 384.024 101.228 C 384.033 100.557,383.385 100.091,382.479 100.118 L 381.792 100.139 382.635 100.327 M15.843 104.284 C 15.843 105.248,15.876 105.667,15.916 105.215 C 15.957 104.763,15.958 103.975,15.917 103.463 C 15.877 102.951,15.844 103.320,15.843 104.284 M384.100 104.284 C 384.100 105.248,384.133 105.667,384.173 105.215 C 384.214 104.763,384.215 103.975,384.175 103.463 C 384.134 102.951,384.101 103.320,384.100 104.284 M6.329 121.266 C 5.831 121.383,5.451 121.872,5.460 122.384 C 5.466 122.689,5.533 122.636,5.738 122.163 C 6.010 121.538,6.036 121.526,7.790 121.257 C 8.057 121.216,7.926 121.181,7.498 121.179 C 7.069 121.176,6.543 121.216,6.329 121.266 M392.210 121.241 C 392.478 121.291,392.988 121.379,393.344 121.437 C 393.838 121.517,394.056 121.690,394.262 122.163 C 394.467 122.636,394.534 122.689,394.540 122.384 C 394.554 121.613,394.121 121.310,392.888 121.228 C 392.247 121.185,391.943 121.191,392.210 121.241 M5.327 125.316 C 5.327 126.280,5.359 126.699,5.400 126.247 C 5.441 125.795,5.442 125.007,5.401 124.495 C 5.361 123.983,5.328 124.352,5.327 125.316 M394.616 125.316 C 394.616 126.280,394.649 126.699,394.690 126.247 C 394.730 125.795,394.731 125.007,394.691 124.495 C 394.650 123.983,394.617 124.352,394.616 125.316 M5.327 264.167 C 5.327 265.131,5.359 265.550,5.400 265.098 C 5.441 264.646,5.442 263.858,5.401 263.346 C 5.361 262.834,5.328 263.204,5.327 264.167 M394.616 264.167 C 394.616 265.131,394.649 265.550,394.690 265.098 C 394.730 264.646,394.731 263.858,394.691 263.346 C 394.650 262.834,394.617 263.204,394.616 264.167 M5.460 267.100 C 5.446 267.871,5.879 268.174,7.112 268.256 C 8.219 268.330,8.121 268.285,6.656 268.047 C 6.162 267.967,5.944 267.794,5.738 267.321 C 5.533 266.847,5.466 266.795,5.460 267.100 M394.289 267.242 C 394.130 267.849,393.544 268.148,392.441 268.182 C 392.046 268.195,391.887 268.247,392.087 268.298 C 393.313 268.613,394.685 267.893,394.502 267.030 C 394.454 266.803,394.387 266.870,394.289 267.242 M15.843 285.200 C 15.843 286.164,15.876 286.582,15.916 286.131 C 15.957 285.679,15.958 284.890,15.917 284.378 C 15.877 283.866,15.844 284.236,15.843 285.200 M384.100 285.200 C 384.100 286.164,384.133 286.582,384.173 286.131 C 384.214 285.679,384.215 284.890,384.175 284.378 C 384.134 283.866,384.101 284.236,384.100 285.200 M15.976 288.256 C 15.967 288.927,16.615 289.393,17.521 289.366 L 18.208 289.345 17.365 289.156 C 16.687 289.005,16.469 288.847,16.253 288.350 L 15.984 287.731 15.976 288.256 M383.713 288.373 C 383.534 288.854,383.333 289.001,382.642 289.155 L 381.792 289.345 382.500 289.366 C 383.394 289.392,384.095 288.864,384.001 288.235 C 383.938 287.808,383.920 287.816,383.713 288.373 M26.358 306.329 C 26.358 307.240,26.392 307.612,26.433 307.157 C 26.474 306.702,26.474 305.957,26.433 305.501 C 26.392 305.046,26.358 305.419,26.358 306.329 M373.583 306.329 C 373.583 307.240,373.617 307.612,373.658 307.157 C 373.699 306.702,373.699 305.957,373.658 305.501 C 373.617 305.046,373.583 305.419,373.583 306.329 M26.502 309.067 C 26.475 309.855,26.889 310.241,27.855 310.328 C 28.644 310.399,28.661 310.392,28.036 310.255 C 27.082 310.046,26.907 309.906,26.700 309.192 C 26.535 308.620,26.519 308.610,26.502 309.067 M373.347 309.007 C 373.308 309.648,372.638 310.222,371.908 310.239 C 371.560 310.248,371.390 310.300,371.529 310.356 C 372.450 310.725,373.630 309.892,373.456 308.997 L 373.373 308.569 373.347 309.007 M36.884 313.145 C 36.884 314.698,36.914 315.333,36.951 314.557 C 36.988 313.780,36.988 312.510,36.951 311.733 C 36.914 310.957,36.884 311.592,36.884 313.145 M363.076 313.145 C 363.076 314.698,363.107 315.333,363.144 314.557 C 363.181 313.780,363.181 312.510,363.144 311.733 C 363.107 310.957,363.076 311.592,363.076 313.145 M37.019 319.583 C 36.991 320.371,37.406 320.757,38.371 320.844 C 39.160 320.915,39.177 320.908,38.552 320.771 C 37.598 320.562,37.423 320.422,37.216 319.708 C 37.051 319.136,37.035 319.126,37.019 319.583 M362.831 319.523 C 362.792 320.164,362.122 320.738,361.392 320.755 C 361.044 320.764,360.874 320.817,361.013 320.872 C 361.934 321.241,363.114 320.408,362.940 319.513 L 362.857 319.085 362.831 319.523 M44.688 321.078 L 47.311 321.140 47.374 323.764 L 47.437 326.388 47.428 323.710 L 47.420 321.032 44.742 321.024 L 42.064 321.015 44.688 321.078 M352.568 321.188 C 352.515 321.328,352.498 322.577,352.532 323.964 L 352.593 326.485 352.635 323.813 L 352.678 321.140 355.355 321.080 L 358.033 321.020 355.349 320.977 C 353.293 320.945,352.643 320.994,352.568 321.188 M47.528 330.136 C 47.514 330.823,48.145 331.454,48.832 331.440 C 49.340 331.429,49.333 331.417,48.685 331.196 C 48.171 331.021,47.947 330.797,47.771 330.282 C 47.551 329.635,47.538 329.627,47.528 330.136 M352.182 330.331 C 352.042 330.808,351.828 331.021,351.315 331.196 C 350.667 331.417,350.660 331.429,351.168 331.440 C 351.832 331.453,352.483 330.832,352.483 330.185 C 352.483 329.534,352.406 329.572,352.182 330.331 M55.204 331.594 L 57.827 331.656 57.890 334.280 L 57.953 336.904 57.944 334.226 L 57.936 331.548 55.258 331.540 L 52.580 331.531 55.204 331.594 M342.052 331.705 C 341.998 331.844,341.982 333.093,342.016 334.480 L 342.077 337.001 342.119 334.329 L 342.162 331.657 344.839 331.596 L 347.517 331.536 344.833 331.494 C 342.777 331.461,342.127 331.510,342.052 331.705 M58.044 340.652 C 58.030 341.339,58.661 341.970,59.348 341.956 C 59.856 341.945,59.849 341.933,59.202 341.712 C 58.687 341.537,58.463 341.313,58.288 340.798 C 58.067 340.151,58.055 340.144,58.044 340.652 M341.666 340.847 C 341.526 341.324,341.312 341.537,340.798 341.712 C 340.151 341.933,340.144 341.945,340.652 341.956 C 341.316 341.970,341.967 341.349,341.967 340.701 C 341.967 340.050,341.890 340.088,341.666 340.847 M65.720 342.110 L 68.344 342.173 68.406 344.796 L 68.469 347.420 68.460 344.742 L 68.452 342.064 65.774 342.056 L 63.096 342.047 65.720 342.110 M331.536 342.221 C 331.482 342.360,331.466 343.609,331.500 344.996 L 331.561 347.517 331.603 344.845 L 331.646 342.173 334.323 342.112 L 337.001 342.052 334.317 342.010 C 332.261 341.977,331.611 342.026,331.536 342.221 M68.640 351.113 C 68.727 352.078,69.113 352.493,69.901 352.465 C 70.358 352.449,70.348 352.433,69.776 352.268 C 69.061 352.061,68.922 351.886,68.713 350.932 C 68.576 350.307,68.569 350.324,68.640 351.113 M331.271 350.839 C 331.252 351.610,330.912 352.059,330.185 352.275 C 329.684 352.425,329.665 352.452,330.052 352.466 C 331.000 352.501,331.749 351.398,331.389 350.497 C 331.333 350.358,331.280 350.511,331.271 350.839 M74.927 352.628 C 75.704 352.665,76.974 352.665,77.751 352.628 C 78.527 352.591,77.892 352.560,76.339 352.560 C 74.786 352.560,74.150 352.591,74.927 352.628 M322.249 352.628 C 323.026 352.665,324.296 352.665,325.073 352.628 C 325.850 352.591,325.214 352.560,323.661 352.560 C 322.108 352.560,321.473 352.591,322.249 352.628 M79.156 361.629 C 79.243 362.594,79.629 363.009,80.417 362.981 C 80.874 362.965,80.864 362.949,80.292 362.784 C 79.578 362.577,79.438 362.402,79.229 361.448 C 79.092 360.823,79.085 360.840,79.156 361.629 M320.755 361.355 C 320.736 362.126,320.396 362.575,319.669 362.791 C 319.168 362.941,319.149 362.968,319.536 362.982 C 320.484 363.017,321.233 361.914,320.872 361.013 C 320.817 360.874,320.764 361.028,320.755 361.355 M82.327 363.142 C 82.782 363.183,83.527 363.183,83.982 363.142 C 84.438 363.101,84.065 363.067,83.155 363.067 C 82.244 363.067,81.872 363.101,82.327 363.142 M316.018 363.142 C 316.473 363.183,317.218 363.183,317.673 363.142 C 318.128 363.101,317.756 363.067,316.845 363.067 C 315.935 363.067,315.562 363.101,316.018 363.142 M100.118 371.963 C 100.091 372.869,100.557 373.517,101.228 373.507 L 101.753 373.500 101.134 373.231 C 100.637 373.015,100.479 372.797,100.327 372.119 L 100.139 371.276 100.118 371.963 M299.654 372.114 C 299.530 372.810,299.398 373.000,298.876 373.226 L 298.247 373.500 298.778 373.507 C 299.459 373.517,299.952 372.800,299.866 371.922 C 299.805 371.287,299.801 371.291,299.654 372.114 M103.463 373.658 C 103.975 373.699,104.763 373.698,105.215 373.657 C 105.667 373.617,105.248 373.584,104.284 373.584 C 103.320 373.585,102.951 373.618,103.463 373.658 M294.894 373.658 C 295.406 373.699,296.195 373.698,296.647 373.657 C 297.099 373.617,296.680 373.584,295.716 373.584 C 294.752 373.585,294.382 373.618,294.894 373.658 M121.228 382.372 C 121.310 383.605,121.613 384.038,122.384 384.024 C 122.689 384.018,122.636 383.951,122.163 383.746 C 121.690 383.540,121.517 383.322,121.437 382.828 C 121.199 381.363,121.154 381.265,121.228 382.372 M278.696 381.889 C 278.653 383.050,278.452 383.478,277.820 383.753 C 277.433 383.921,277.343 384.019,277.569 384.024 C 278.482 384.043,279.125 382.778,278.814 381.571 C 278.762 381.369,278.710 381.510,278.696 381.889 M124.495 384.175 C 125.007 384.215,125.795 384.214,126.247 384.173 C 126.699 384.133,126.280 384.100,125.316 384.100 C 124.352 384.101,123.983 384.134,124.495 384.175 M273.862 384.175 C 274.374 384.215,275.162 384.214,275.614 384.173 C 276.066 384.133,275.648 384.100,274.684 384.100 C 273.720 384.101,273.350 384.134,273.862 384.175 " stroke="none" fill="#0000ff" fill-rule="evenodd"></path></g></svg>